<svg xmlns="http://www.w3.org/2000/svg" viewBox="0 0 48 48" id="Research">
  <path d="M16 4a12 12 0 1 0 12 12A12 12 0 0 0 16 4Zm0 22a10 10 0 1 1 10-10 10 10 0 0 1-10 10Z" fill="#25c0b8" class="color000000 svgShape"></path>
  <path d="m46.83 41.17-8.9-8.9a2 2 0 0 0-1.93-.51l-3.25-3.24a3 3 0 0 0 0-4.24l-2-2a16 16 0 1 0-8.49 8.49l2 2a3 3 0 0 0 4.24 0L31.76 36a2 2 0 0 0 .51 1.93C41.5 47.16 41.77 48 44 48a4 4 0 0 0 2.83-6.83ZM2 16a14 14 0 1 1 14 14A14 14 0 0 1 2 16Zm23.69 15.35-1.58-1.58a16.15 16.15 0 0 0 5.66-5.66l1.58 1.58a1 1 0 0 1 0 1.42l-4.24 4.24a1 1 0 0 1-1.42 0Zm5.66-1.42 3 3L33 34.39l-3-3Zm14.06 15.48a2 2 0 0 1-2.82 0l-8.9-8.89 2.83-2.83 8.89 8.9a2 2 0 0 1 0 2.82Z" fill="#25c0b8" class="color000000 svgShape"></path>
</svg>
